<mxfile host="app.diagrams.net" agent="Mozilla/5.0 (Macintosh; Intel Mac OS X 10_15_7) AppleWebKit/537.36 (KHTML, like Gecko) Chrome/129.0.0.0 Safari/537.36" version="24.7.8">
  <diagram name="第 1 页" id="tFw5E1t61ICdBNeUqZ7e">
    <mxGraphModel dx="794" dy="1121" grid="1" gridSize="10" guides="1" tooltips="1" connect="1" arrows="1" fold="1" page="1" pageScale="1" pageWidth="827" pageHeight="1169" math="0" shadow="0">
      <root>
        <mxCell id="0" />
        <mxCell id="1" parent="0" />
        <mxCell id="PI3ejiKASkyPd-d5WvOY-1" value="" style="verticalLabelPosition=bottom;verticalAlign=top;html=1;shape=mxgraph.basic.rect;fillColor2=none;strokeWidth=1;size=20;indent=5;" vertex="1" parent="1">
          <mxGeometry width="820" height="50" as="geometry" />
        </mxCell>
        <mxCell id="PI3ejiKASkyPd-d5WvOY-16" value="" style="group" vertex="1" connectable="0" parent="1">
          <mxGeometry x="10" y="15" width="30" height="20" as="geometry" />
        </mxCell>
        <mxCell id="PI3ejiKASkyPd-d5WvOY-13" value="" style="endArrow=none;html=1;rounded=0;" edge="1" parent="PI3ejiKASkyPd-d5WvOY-16">
          <mxGeometry width="50" height="50" relative="1" as="geometry">
            <mxPoint as="sourcePoint" />
            <mxPoint x="30" as="targetPoint" />
          </mxGeometry>
        </mxCell>
        <mxCell id="PI3ejiKASkyPd-d5WvOY-14" value="" style="endArrow=none;html=1;rounded=0;" edge="1" parent="PI3ejiKASkyPd-d5WvOY-16">
          <mxGeometry width="50" height="50" relative="1" as="geometry">
            <mxPoint y="10" as="sourcePoint" />
            <mxPoint x="30" y="10" as="targetPoint" />
          </mxGeometry>
        </mxCell>
        <mxCell id="PI3ejiKASkyPd-d5WvOY-15" value="" style="endArrow=none;html=1;rounded=0;" edge="1" parent="PI3ejiKASkyPd-d5WvOY-16">
          <mxGeometry width="50" height="50" relative="1" as="geometry">
            <mxPoint y="20" as="sourcePoint" />
            <mxPoint x="30" y="20" as="targetPoint" />
          </mxGeometry>
        </mxCell>
        <mxCell id="PI3ejiKASkyPd-d5WvOY-17" value="" style="ellipse;whiteSpace=wrap;html=1;aspect=fixed;" vertex="1" parent="1">
          <mxGeometry x="730" y="10" width="30" height="30" as="geometry" />
        </mxCell>
        <mxCell id="PI3ejiKASkyPd-d5WvOY-18" value="" style="shape=manualInput;whiteSpace=wrap;html=1;" vertex="1" parent="1">
          <mxGeometry x="770" y="10" width="30" height="30" as="geometry" />
        </mxCell>
        <mxCell id="PI3ejiKASkyPd-d5WvOY-21" value="" style="shape=actor;whiteSpace=wrap;html=1;" vertex="1" parent="1">
          <mxGeometry x="680" y="10" width="30" height="30" as="geometry" />
        </mxCell>
        <mxCell id="PI3ejiKASkyPd-d5WvOY-22" value="" style="rounded=1;whiteSpace=wrap;html=1;" vertex="1" parent="1">
          <mxGeometry y="160" width="820" height="70" as="geometry" />
        </mxCell>
        <mxCell id="PI3ejiKASkyPd-d5WvOY-23" value="Product filter" style="text;strokeColor=none;fillColor=none;html=1;fontSize=24;fontStyle=1;verticalAlign=middle;align=center;" vertex="1" parent="1">
          <mxGeometry x="50" y="175" width="100" height="40" as="geometry" />
        </mxCell>
        <mxCell id="PI3ejiKASkyPd-d5WvOY-26" value="NAV" style="text;strokeColor=none;fillColor=none;html=1;fontSize=24;fontStyle=1;verticalAlign=middle;align=center;" vertex="1" parent="1">
          <mxGeometry x="360" y="5" width="100" height="40" as="geometry" />
        </mxCell>
        <mxCell id="PI3ejiKASkyPd-d5WvOY-32" value="" style="group" vertex="1" connectable="0" parent="1">
          <mxGeometry x="530" y="170" width="110" height="50" as="geometry" />
        </mxCell>
        <mxCell id="PI3ejiKASkyPd-d5WvOY-25" value="" style="ellipse;whiteSpace=wrap;html=1;" vertex="1" parent="PI3ejiKASkyPd-d5WvOY-32">
          <mxGeometry width="110" height="50" as="geometry" />
        </mxCell>
        <mxCell id="PI3ejiKASkyPd-d5WvOY-27" value="Filter" style="text;strokeColor=none;fillColor=none;html=1;fontSize=24;fontStyle=1;verticalAlign=middle;align=center;" vertex="1" parent="PI3ejiKASkyPd-d5WvOY-32">
          <mxGeometry x="50" y="20" width="40" height="10" as="geometry" />
        </mxCell>
        <mxCell id="PI3ejiKASkyPd-d5WvOY-28" value="" style="group" vertex="1" connectable="0" parent="PI3ejiKASkyPd-d5WvOY-32">
          <mxGeometry x="10" y="17.5" width="20" height="15" as="geometry" />
        </mxCell>
        <mxCell id="PI3ejiKASkyPd-d5WvOY-29" value="" style="endArrow=none;html=1;rounded=0;" edge="1" parent="PI3ejiKASkyPd-d5WvOY-28">
          <mxGeometry width="50" height="50" relative="1" as="geometry">
            <mxPoint as="sourcePoint" />
            <mxPoint x="20" as="targetPoint" />
          </mxGeometry>
        </mxCell>
        <mxCell id="PI3ejiKASkyPd-d5WvOY-30" value="" style="endArrow=none;html=1;rounded=0;" edge="1" parent="PI3ejiKASkyPd-d5WvOY-28">
          <mxGeometry width="50" height="50" relative="1" as="geometry">
            <mxPoint y="7.5" as="sourcePoint" />
            <mxPoint x="20" y="7.5" as="targetPoint" />
          </mxGeometry>
        </mxCell>
        <mxCell id="PI3ejiKASkyPd-d5WvOY-31" value="" style="endArrow=none;html=1;rounded=0;" edge="1" parent="PI3ejiKASkyPd-d5WvOY-28">
          <mxGeometry width="50" height="50" relative="1" as="geometry">
            <mxPoint y="15" as="sourcePoint" />
            <mxPoint x="20" y="15" as="targetPoint" />
          </mxGeometry>
        </mxCell>
        <mxCell id="PI3ejiKASkyPd-d5WvOY-33" value="" style="rounded=1;whiteSpace=wrap;html=1;" vertex="1" parent="1">
          <mxGeometry x="680" y="175" width="110" height="40" as="geometry" />
        </mxCell>
        <mxCell id="PI3ejiKASkyPd-d5WvOY-34" value="View by" style="text;strokeColor=none;fillColor=none;html=1;fontSize=24;fontStyle=1;verticalAlign=middle;align=center;" vertex="1" parent="1">
          <mxGeometry x="695" y="180" width="80" height="30" as="geometry" />
        </mxCell>
      </root>
    </mxGraphModel>
  </diagram>
</mxfile>
